<!-- Generator: Adobe Illustrator 25.0.0, SVG Export Plug-In  -->
<svg version="1.1" xmlns="http://www.w3.org/2000/svg" xmlns:xlink="http://www.w3.org/1999/xlink" x="0px" y="0px"
	 width="467.94px" height="530.14px" viewBox="0 0 467.94 530.14"
	 style="overflow:visible;enable-background:new 0 0 467.94 530.14;" xml:space="preserve">
<style type="text/css">
	.st0{fill:#FDFDFE;}
</style>
<defs>
</defs>
<path class="st0" d="M467.2,277.3c-2.9-15.8-14.5-29-30-34.5c-10.4-3.6-26.5-2.2-35.3,3.2l-3,1.8l-3-5.8
	c-3.5-7.1-12.5-15.8-20.1-19.4c-12-5.7-26.4-5.6-38.5,0.1c-2.9,1.4-5.4,2.3-5.6,2.2c-0.1-0.2-1.2-2.4-2.5-4.8
	c-4.9-9.6-14.5-18.1-24.6-21.6c-8.3-2.9-19.1-3.1-27.2-0.6c-3.7,1.2-7.4,2.5-8,2.7c-1,0.5-1.3-6.9-1.3-34.8c0-0.02,0-0.03,0-0.05
	c23.41-13.77,39.99-37.94,43.36-66.11L351.1,100l55,0.5L395.5,111c-14,13.8-16.4,17.1-16.4,22.6c0,3.4,0.6,4.8,3.1,7.3
	c4.2,4.2,10,4.3,15.5,0.2c6.6-4.9,46.2-45.4,47.4-48.5c2.4-6.4,1.3-7.8-25.4-34.5c-25.1-25-25.2-25.1-29.5-25.1
	c-3.6,0-4.9,0.6-7.7,3.4c-2.9,2.9-3.4,4.1-3.4,8.1c0,4.7,0,4.7,13.7,18.6l13.6,13.8l-54.6,0.3c-19.67,0.11-32.25,0.18-40.44,0.33
	C305.72,33.85,268.29,0,223.1,0c-45.19,0-82.62,33.85-88.26,77.53c-8.24-0.2-20.87-0.33-40.54-0.53l-54.2-0.5L50.7,66
	c13.8-13.6,16.4-17.2,16.4-22.3C67.1,38.2,62,33,56.4,33c-2.1,0-5,0.7-6.3,1.7c-1.4,0.9-12.9,12-25.7,24.8
	C-0.5,84.3-1.7,86.2,1,92.9c0.7,1.5,12.1,13.7,25.5,27L50.8,144h4.7c4.1,0,5.3-0.5,8.2-3.4c2.8-2.8,3.4-4.1,3.4-7.7
	c0-4.1-0.4-4.6-14.2-18.6L38.7,100h54.2c20.02,0,33.13,0,41.85-0.21c3.42,28.13,20.02,52.25,43.41,65.99
	c-0.07,14.31-0.07,32.68-0.07,56.52V318l-20.2-15.2c-11.2-8.4-23.2-16.7-26.8-18.5c-21.8-11-49-7-66,9.6
	c-8.3,8.2-10.5,13.2-10.5,24.6c0,7.4,0.4,9.9,2.4,14c1.9,4,19.3,21.9,86,88.8c46,46.1,86.5,86,90.1,88.7c13,9.7,26.3,15.5,42.3,18.5
	c11.6,2.2,77.4,2.2,90.1-0.1c50.2-8.7,88.3-45.4,100.2-96.4c1.6-6.7,1.8-15.2,2.1-78.2C468.1,306.8,467.9,281.1,467.2,277.3z
	 M158.1,89c0-35.84,29.16-65,65-65c35.84,0,65,29.16,65,65c0,18.58-7.85,35.36-20.4,47.21c-0.15-6.24-0.33-10.79-0.5-12.41
	c-2.3-17.4-14.9-32.2-31.8-37.3c-6.6-2-19.6-1.9-25.8,0.3c-11,3.8-20,11.2-25.6,20.9c-3.37,5.88-4.81,8.21-5.43,28.6
	C165.98,124.44,158.1,107.62,158.1,89z M444.8,352.1c-0.3,70.3-0.3,71.5-2.5,79.9c-8.7,32.8-33.4,59.4-64.7,69.9
	c-14.6,4.9-19.9,5.3-59,5.3c-33-0.1-36.7-0.3-44-2.2c-10-2.6-19-6.7-26.9-12.4c-3.4-2.5-43.1-41.5-88.3-86.8l-82.3-82.4v-4.3
	c0-5.8,3.1-9.8,10.7-13.9c10.1-5.3,23.3-5.8,32.5-1.1c2.3,1.2,17.3,11.9,33.3,23.9c15.9,11.9,30,22.2,31.2,22.9
	c5.2,2.7,12.6,0,14.9-5.4c1.2-2.9,1.4-20.5,1.4-112.2c0-122.9-0.6-113.2,8-120.6c6.8-5.8,15.9-6.8,24-2.7c4.6,2.4,7.4,5.5,9.9,11
	c2,4.4,2.1,6.1,2.1,91.8V300l3.3,3.7c2.8,3,4,3.6,7.6,3.6c5.2,0,9.1-2.7,10.8-7.4c0.8-2.3,1.2-13,1.3-33.9
	c0.1-34.2,0.3-35.5,7.3-41.7c12.5-10.9,32.1-4.4,35.6,11.9c0.6,2.8,1.1,17.3,1.1,33.9c0,25.4,0.2,29.5,1.7,31.9
	c4.2,7.2,15.4,7,19.1-0.3c0.8-1.4,1.3-9.8,1.5-23.2c0.2-19.2,0.5-21.4,2.4-25c7-13.1,22.5-16.6,33.6-7.4c6.8,5.6,7.1,6.9,7.7,31.4
	c0.4,18.3,0.8,22.4,2.2,24.3c2.6,3.8,5.7,5.4,9.8,5.4c8.1-0.1,10.7-4.4,11.3-18.2c0.3-7.1,0.9-10.5,2.5-13.7
	c8.2-15.9,30.8-16,38.6-0.1l2.7,5.5L444.8,352.1z"/>
</svg>
