<!-- Generator: Adobe Illustrator 25.0.0, SVG Export Plug-In  -->
<svg version="1.1" xmlns="http://www.w3.org/2000/svg" xmlns:xlink="http://www.w3.org/1999/xlink" x="0px" y="0px"
	 width="219.43px" height="219.43px" viewBox="0 0 219.43 219.43"
	 style="overflow:visible;enable-background:new 0 0 219.43 219.43;" xml:space="preserve">
<style type="text/css">
	.st0{fill:#FFFFFF;}
</style>
<defs>
</defs>
<path class="st0" d="M214.07,188.21l-78.5-78.5l78.5-78.5c7.15-7.14,7.14-18.71,0-25.85c-7.14-7.15-18.71-7.15-25.85,0l-78.5,78.5
	l-78.5-78.5c-7.14-7.15-18.71-7.14-25.85,0c-7.15,7.14-7.15,18.71,0,25.85l78.5,78.5l-78.5,78.5c-7.15,7.14-7.15,18.71,0,25.85
	c3.57,3.58,8.25,5.36,12.92,5.36c4.68,0,9.36-1.78,12.93-5.36l78.5-78.5l78.5,78.5c3.57,3.58,8.25,5.36,12.93,5.36
	c4.68,0,9.36-1.78,12.92-5.36C221.21,206.93,221.21,195.36,214.07,188.21z"/>
</svg>
