<!-- Generator: Adobe Illustrator 25.0.0, SVG Export Plug-In  -->
<svg version="1.1" xmlns="http://www.w3.org/2000/svg" xmlns:xlink="http://www.w3.org/1999/xlink" x="0px" y="0px" width="521px"
	 height="473.83px" viewBox="0 0 521 473.83" style="overflow:visible;enable-background:new 0 0 521 473.83;" xml:space="preserve"
	>
<style type="text/css">
	.st0{fill:#FFFFFF;stroke:#FFFFFF;stroke-width:9;stroke-miterlimit:10;}
	.st1{fill:#FFFFFF;}
</style>
<defs>
</defs>
<path class="st0" d="M514.37,72.77c-2.13-2.13-4.27-4.27-8.53-4.27H100.5L89.83,13.03c0-4.27-6.4-8.53-10.67-8.53h-64
	C8.77,4.5,4.5,8.77,4.5,15.17s4.27,10.67,10.67,10.67h55.47l51.2,260.27c6.4,34.13,38.4,59.73,72.53,59.73H439.7
	c6.4,0,10.67-4.27,10.67-10.67c0-6.4-4.27-10.67-10.67-10.67H196.5c-17.07,0-34.13-8.53-42.67-23.47l311.47-42.67
	c4.27,0,8.53-4.27,8.53-8.53L516.5,79.17C516.5,79.17,516.5,74.9,514.37,72.77z M454.63,239.17L143.17,279.7l-38.4-192H490.9
	L454.63,239.17z"/>
<path class="st1" d="M185.83,367.17c-29.87,0-53.33,23.47-53.33,53.33c0,29.87,23.47,53.33,53.33,53.33s53.33-23.47,53.33-53.33
	C239.17,390.63,215.7,367.17,185.83,367.17z M185.83,452.5c-17.07,0-32-14.93-32-32s14.93-32,32-32s32,14.93,32,32
	S202.9,452.5,185.83,452.5z"/>
<path class="st1" d="M399.17,367.17c-29.87,0-53.33,23.47-53.33,53.33c0,29.87,23.47,53.33,53.33,53.33
	c29.87,0,53.33-23.47,53.33-53.33C452.5,390.63,429.03,367.17,399.17,367.17z M399.17,452.5c-17.07,0-32-14.93-32-32s14.93-32,32-32
	c17.07,0,32,14.93,32,32S416.23,452.5,399.17,452.5z"/>
<circle class="st1" cx="403.17" cy="421.17" r="36"/>
<circle class="st1" cx="185.83" cy="421.17" r="36"/>
</svg>
